<?xml version="1.0" encoding="utf-8"?>
<svg width="179" height="51" viewBox="-3.149 2.888 41.732 39.453" fill="none" xmlns="http://www.w3.org/2000/svg">
  <defs/>
  <path d="M144.439 50.6895L152.523 12.6085H160.504L159.986 15.2509C162.007 13.023 164.754 11.8314 167.812 11.8314C173.823 11.8314 178.28 16.4943 178.28 23.7997C178.28 32.7629 171.543 40.8454 163.096 40.8454C159.572 40.8454 156.98 39.4983 155.581 37.2705L152.731 50.6895H144.439ZM162.111 33.6955C166.413 33.6955 169.729 28.9807 169.729 24.2141C169.729 20.7946 168.019 18.9813 165.221 18.9813C161.178 18.9813 157.654 23.5406 157.654 28.8771C157.654 32.2448 159.623 33.6955 162.111 33.6955Z" fill="black"/>
  <path d="M 17.507 22.802 L 4.301 10.703 C 3.49 9.961 3.429 8.694 4.249 7.962 C 6.287 6.145 8.69 4.755 11.282 3.899 C 12.325 3.555 13.391 4.241 13.629 5.313 L 17.507 22.802 Z" fill="black"/>
  <path d="M 30.765 7.962 C 31.585 8.694 31.524 9.961 30.714 10.703 L 17.507 22.802 L 21.385 5.313 C 21.623 4.241 22.689 3.555 23.732 3.899 C 26.324 4.755 28.727 6.145 30.765 7.962 Z" fill="black"/>
  <path d="M 36.992 18.744 C 36.77 17.667 35.641 17.086 34.592 17.416 L 17.507 22.802 L 0.422 17.416 C -0.627 17.086 -1.756 17.667 -1.978 18.744 C -2.531 21.416 -2.532 24.186 -1.978 26.859 C -1.756 27.936 -0.627 28.518 0.422 28.187 L 17.507 22.802 L 4.301 34.9 C 3.49 35.642 3.429 36.909 4.249 37.641 C 6.287 39.458 8.69 40.849 11.282 41.704 C 12.325 42.048 13.391 41.362 13.629 40.29 L 17.507 22.802 L 21.385 40.29 C 21.623 41.362 22.689 42.048 23.732 41.704 C 26.324 40.849 28.727 39.458 30.765 37.641 C 31.585 36.909 31.524 35.642 30.714 34.9 L 17.507 22.802 L 34.592 28.187 C 35.641 28.518 36.77 27.936 36.992 26.859 C 37.544 24.189 37.544 21.414 36.992 18.744 Z" fill="black"/>
</svg>